<svg width="52" height="52" viewBox="0 0 52 52" fill="none" xmlns="http://www.w3.org/2000/svg">
<g clip-path="url(#clip0_2331_53)">
<rect width="52" height="52" rx="10" fill="#D9D9D9"/>
<path fill-rule="evenodd" clip-rule="evenodd" d="M39.3326 30.2241C39.5059 29.3709 39.5972 28.4887 39.5972 27.5855C39.5972 26.9506 39.5892 26.326 39.5022 25.7151L47.5833 25.7144C47.6384 26.3303 47.6667 26.955 47.6667 27.5855C47.6667 28.4786 47.6101 29.36 47.5014 30.2241H39.3326Z" fill="#DC2626"/>
<path d="M21.9464 3.75559H30.0579V11.6665H21.9464V3.75559Z" fill="#717D84"/>
<path d="M30.1014 35.1119H21.9072V15.6197H30.1014V35.1119Z" fill="#717D84"/>
<path fill-rule="evenodd" clip-rule="evenodd" d="M39.1682 21.854C38.1432 19.1986 36.2839 16.9423 33.9019 15.389C33.9048 13.7849 33.9063 10.8524 33.907 6.60313C40.7296 9.0967 45.9358 14.8137 47.5762 21.854H39.1682Z" fill="#717D84"/>
<path fill-rule="evenodd" clip-rule="evenodd" d="M4.33333 26.6046C4.33333 17.4524 10.2383 9.64592 18.5673 6.60895L18.5636 15.3999C14.837 17.8195 12.4021 21.9345 12.4021 26.6046C12.4021 34.0505 18.5912 40.0867 26.2265 40.0867C30.9578 40.0867 35.1346 37.7687 37.6261 34.2333H46.6814C43.5325 42.2574 35.5623 47.9556 26.2265 47.9556C14.1346 47.9556 4.33333 38.397 4.33333 26.6046Z" fill="#717D84"/>
</g>
<defs>
<clipPath id="clip0_2331_53">
<rect width="52" height="52" fill="white"/>
</clipPath>
</defs>
</svg>
